<mxfile host="app.diagrams.net" modified="2023-12-30T22:15:30.025Z" agent="Mozilla/5.0 (Windows NT 10.0; Win64; x64) AppleWebKit/537.36 (KHTML, like Gecko) Chrome/120.0.0.0 Safari/537.36" etag="OrhqxmThtTvKzt5oBhEB" version="22.1.16" type="github">
  <diagram name="Page-1" id="LfpSLBDjDCymRGX5kylx">
    <mxGraphModel dx="1050" dy="1679" grid="1" gridSize="10" guides="1" tooltips="1" connect="1" arrows="1" fold="1" page="1" pageScale="1" pageWidth="850" pageHeight="1100" math="0" shadow="0">
      <root>
        <mxCell id="0" />
        <mxCell id="1" parent="0" />
        <mxCell id="VotGJ8dUcBm4uIzm4TV_-2" value="&lt;h1&gt;Elementi Principali&lt;/h1&gt;&lt;p&gt;inverter&lt;br&gt;&lt;/p&gt;&lt;p&gt;imd&lt;/p&gt;&lt;p&gt;&lt;span style=&quot;background-color: initial;&quot;&gt;priorities&lt;/span&gt;&lt;/p&gt;&lt;div style=&quot;border-color: var(--border-color);&quot;&gt;airbreaks&lt;/div&gt;" style="text;html=1;strokeColor=none;fillColor=none;spacing=5;spacingTop=-20;whiteSpace=wrap;overflow=hidden;rounded=0;" vertex="1" parent="1">
          <mxGeometry width="190" height="200" as="geometry" />
        </mxCell>
        <mxCell id="VotGJ8dUcBm4uIzm4TV_-3" value="&lt;h1&gt;Cosa Fa il Codice&lt;/h1&gt;&lt;p&gt;send ECU Status&amp;nbsp;&lt;/p&gt;&lt;p&gt;read and send IMD resistence&lt;/p&gt;&lt;p&gt;send torque to inverter&lt;/p&gt;&lt;p&gt;errors management&lt;/p&gt;&lt;p&gt;tps checks&lt;/p&gt;&lt;p&gt;&lt;br&gt;&lt;/p&gt;&lt;p&gt;modalitÃ  ECU: IDLE, IGNITION, RACE, ERROR&lt;/p&gt;" style="text;html=1;strokeColor=none;fillColor=none;spacing=5;spacingTop=-20;whiteSpace=wrap;overflow=hidden;rounded=0;" vertex="1" parent="1">
          <mxGeometry y="200" width="190" height="280" as="geometry" />
        </mxCell>
      </root>
    </mxGraphModel>
  </diagram>
</mxfile>
